<svg id="Calque_1" data-name="Calque 1" xmlns="http://www.w3.org/2000/svg" viewBox="0 0 316.24 74.61"><defs><style>.cls-1{fill:#e50914;}</style></defs><title>hackflix_logo</title><path class="cls-1" d="M241.22,262.11Q236,263,230.83,264V190.24l10.47,0q0,15.41,0,30.81,5.93-.45,11.87-.87l.07-30,10.66,0q-.1,34.15-.2,68.3-5.31.79-10.61,1.64l.07-30q-5.93.55-11.86,1.15Q241.24,246.7,241.22,262.11Z" transform="translate(-230.83 -189.39)"/><path class="cls-1" d="M311.3,252.76q-5.29.48-10.57,1-.88-5.68-1.76-11.4-6.43.56-12.84,1.2-.93,6-1.85,12.07-4.8.59-9.6,1.24,5.44-34.09,10.9-66.77l15.32,0Q306.1,222,311.3,252.76Zm-23.81-18.14q5-.41,10.09-.79-2.46-16-4.91-32.27Q290.08,217.95,287.49,234.62Z" transform="translate(-230.83 -189.39)"/><path class="cls-1" d="M352.38,227.66q0,4,0,8c0,9.59-5.39,15.25-15.7,15.89S321,247,321.07,237.09l.13-32.15c0-9.92,5.39-15.57,15.67-15.55s15.6,5.49,15.57,15.07v5.82l-9.91.17q0-3.24,0-6.47c0-4.31-2.08-5.94-5.41-5.91s-5.43,1.7-5.45,6.07l-.12,33c0,4.37,2.08,5.81,5.42,5.63s5.45-1.83,5.46-6.14l0-8.63Q347.42,227.8,352.38,227.66Z" transform="translate(-230.83 -189.39)"/><path class="cls-1" d="M377.89,225.69l-3.25,5.45q0,9.1,0,18.2-5.26.09-10.51.24.05-29.75.11-59.51h10.47q0,12.91,0,25.83,6.88-13,13.73-25.83h10.47q-7.27,13.19-14.57,26.37,7.29,16.38,14.62,32.84-5.4-.06-10.8-.06Q383,237.44,377.89,225.69Z" transform="translate(-230.83 -189.39)"/><path class="cls-1" d="M420.41,216.61q6.77.11,13.54.27l0,8.62q-6.77-.21-13.55-.36l.05,24.66q-5.26-.19-10.51-.32,0-29.7-.09-59.41h27.7l0,8.65-17.24-.12Z" transform="translate(-230.83 -189.39)"/><path class="cls-1" d="M448.73,190.09H459.2l.21,53.17q8.63.61,17.24,1.38l0,9.09q-13.85-1.43-27.74-2.41Z" transform="translate(-230.83 -189.39)"/><path class="cls-1" d="M487.35,190.13h10.47l.25,66.08q-5.23-.67-10.46-1.28Z" transform="translate(-230.83 -189.39)"/><path class="cls-1" d="M546.31,190.23q-5.47,17.87-10.9,34.79,5.86,18.93,11.66,39-5.47-1-11-2-4.27-14.95-8.57-29.29-4.29,13.49-8.56,26.47-4.88-.75-9.77-1.45,5.78-16.55,11.57-33.9-5.5-17.25-11-33.68l10.85,0q4,12.77,7.95,26,4-12.75,8-26Z" transform="translate(-230.83 -189.39)"/></svg>