<?xml version="1.0" encoding="utf-8"?>
<!-- Generator: Adobe Illustrator 19.2.1, SVG Export Plug-In . SVG Version: 6.00 Build 0)  -->
<svg version="1.1" id="Calque_1" xmlns="http://www.w3.org/2000/svg" xmlns:xlink="http://www.w3.org/1999/xlink" x="0px" y="0px"
	 width="145.9px" height="137.7px" viewBox="0 0 145.9 137.7" style="enable-background:new 0 0 145.9 137.7;" xml:space="preserve"
	>
<style type="text/css">
	.st0{fill:#ff6347;}
</style>
<g>
	<path class="st0" d="M141.3,66.9l-32.2-55.8c-0.8-1.3-2.2-2.1-3.7-2.1h-5.1c-1,0-1.7,1.1-1.2,2l27.3,47.5c1.6,2.8-0.4,6.4-3.7,6.4
		h-0.1c-1.5,0-2.9-0.8-3.7-2.1l-9.2-15.9c-0.5-0.8-1.4-1.3-2.3-1.3l-30.9,0c-1,0-1.7,1.1-1.2,2l6.3,10.9c1.6,2.8-0.4,6.4-3.7,6.4H78
		c-1.5,0-2.9-0.8-3.7-2.1L44.2,10.3C43.7,9.5,42.8,9,41.9,9h-1c-1.5,0-2.9,0.8-3.7,2.1L4.9,66.9c-0.8,1.3-0.8,2.9,0,4.3l2.6,4.5
		c0.5,0.9,1.8,0.9,2.3,0l27.5-47.5c1.6-2.8,5.7-2.8,7.4,0l0.1,0.1c0.8,1.3,0.8,2.9,0,4.3l-9.2,15.9c-0.5,0.8-0.5,1.8,0,2.7L51,77.8
		c0.5,0.9,1.8,0.9,2.3,0l6.3-10.9c1.6-2.8,5.7-2.8,7.4,0l0,0.1c0.8,1.3,0.8,2.9,0,4.3l-30.3,52.4c-0.5,0.8-0.5,1.8,0,2.7l0.5,0.8
		c0.8,1.3,2.2,2.1,3.7,2.1h64.6c1.5,0,2.8-0.7,3.6-2l2.9-4.5c0.6-0.9-0.1-2.1-1.1-2.1l-55-0.1c-3.3,0-5.3-3.6-3.7-6.4l0.1-0.1
		c0.8-1.3,2.2-2.1,3.7-2.1h18.3c1,0,1.8-0.5,2.3-1.3L91.8,84c0.5-0.9-0.1-2-1.2-2H78c-3.3,0-5.3-3.5-3.7-6.4l0-0.1
		c0.8-1.3,2.2-2.1,3.7-2.1l60.4,0.1c1,0,1.8-0.5,2.3-1.3l0.5-0.9C142.1,69.9,142,68.2,141.3,66.9z"/>
	<g>
		<path class="st0" d="M132.7,82L104.5,82c-1,0-1.8,0.5-2.3,1.3L86.7,110c-0.5,0.9,0.1,2,1.2,2l28.3,0.1c1,0,1.8-0.5,2.3-1.3
			L133.9,84C134.4,83.1,133.8,82,132.7,82z"/>
		<path class="st0" d="M103,34.9L88.9,10.3C88.4,9.5,87.5,9,86.5,9H55.7c-1,0-1.7,1.1-1.2,2l14.1,24.6c0.5,0.8,1.4,1.3,2.3,1.3h30.9
			C102.8,36.9,103.5,35.8,103,34.9z"/>
		<path class="st0" d="M31,60.4c-0.5-0.9-1.8-0.9-2.3,0L14.4,84.9c-0.5,0.8-0.5,1.8,0,2.7l15.4,26.7c0.5,0.9,1.8,0.9,2.3,0
			l14.3-24.6c0.5-0.8,0.5-1.8,0-2.7L31,60.4z"/>
	</g>
</g>
</svg>
