<?xml version="1.0" encoding="utf-8"?>
<!-- Generator: Adobe Illustrator 21.1.0, SVG Export Plug-In . SVG Version: 6.00 Build 0)  -->
<svg version="1.1" id="Calque_1" xmlns="http://www.w3.org/2000/svg" xmlns:xlink="http://www.w3.org/1999/xlink" x="0px" y="0px"
	 viewBox="0 0 24 24" style="enable-background:new 0 0 24 24;" xml:space="preserve">
<style type="text/css">
	.st0{fill:#FFFFFF;}
</style>
<g>
	<path class="st0" d="M20.8,5.3C20.6,5.1,20.3,5,20,5H6.2L6,3.8C5.9,3.4,5.5,3,5,3H2.7c-0.6,0-1,0.4-1,1s0.4,1,1,1h1.4L6,16.2l0,0.1
		l0.1,0.2l0.1,0.2l0.1,0.1l0.2,0.1l0.1,0.1C6.7,17,6.9,17,7,17h11c0.6,0,1-0.4,1-1s-0.4-1-1-1H7.8l-0.2-1H19c0.5,0,0.9-0.4,1-0.9
		l1-7C21,5.9,20.9,5.6,20.8,5.3z M18.8,7l-0.3,2H15V7H18.8z M14,7v2h-3V7H14z M14,10v2h-3v-2H14z M10,7v2H7L6.9,9L6.5,7H10z M7,10h3
		v2H7.3L7,10z M15,12v-2h3.4l-0.3,2H15z"/>
	<circle class="st0" cx="8.5" cy="19.5" r="1.5"/>
	<circle class="st0" cx="17.5" cy="19.5" r="1.5"/>
</g>
</svg>
